PathFileType	4	(X/Y/Z)	OpenSim_Sub05_CSStiffKnee_Magnet.trc
DataRate	CameraRate	NumFrames	NumMarkers	Units	OrigDataRate	OrigDataStartFrame	OrigNumFrames
100	100	30	8	m	100	4219	11248
Frame#	Time	torso_imu_offset_imu	pelvis_imu_offset_imu	tibia_r_imu_offset_imu	femur_r_imu_offset_imu	tibia_l_imu_offset_imu	femur_l_imu_offset_imu	toes_r_imu_offset_imu	toes_l_imu_offset_imu
				X1	Y1	Z1	X2	Y2	Z2	X3	Y3	Z3	X4	Y4	Z4	X5	Y5	Z5	X6	Y6	Z6	X7	Y7	Z7	X8		Y8	Z8	

4219	42.18000000	-0.88356252	-0.19855162	0.23726764	-0.64045660	0.11371464	-0.69573735	-0.49537537	-0.62622792	-0.01647246	-0.74917998	-0.35918654	0.20057058	-0.66530551	0.43256624	0.19033328	-0.58348781	0.28628956	0.18293931	-0.74391268	-0.12397150	-0.24276666	-0.65584045	-0.22375821	-0.39290290
4220	42.19000000	-0.87894076	-0.19637596	0.24100952	-0.64385514	0.12090903	-0.69040452	-0.49112942	-0.63649822	-0.01542596	-0.74910917	-0.36471462	0.19593458	-0.67523979	0.42172018	0.18339264	-0.58430853	0.28151286	0.17673354	-0.74758696	-0.11971019	-0.24551307	-0.64610527	-0.22689450	-0.40500762
4221	42.20000000	-0.88003382	-0.19270242	0.23827051	-0.64889972	0.12503136	-0.68873245	-0.48740057	-0.64314882	-0.01935621	-0.74507458	-0.37143774	0.19476747	-0.68268410	0.40512016	0.18391341	-0.58910544	0.27317337	0.17769317	-0.74757975	-0.12503350	-0.23816532	-0.63641598	-0.23224819	-0.41403787
4222	42.21000000	-0.88019147	-0.19104987	0.23980679	-0.65062448	0.12625065	-0.68769307	-0.48703293	-0.64286626	-0.03034720	-0.74129462	-0.38247619	0.19174356	-0.68670583	0.39145630	0.18572034	-0.59320384	0.26669330	0.18018216	-0.74964106	-0.13211105	-0.22806489	-0.63055519	-0.23937388	-0.42742529
4223	42.22000000	-0.87825416	-0.18860609	0.24171032	-0.65219874	0.13073890	-0.67920866	-0.47749383	-0.64451715	-0.02618474	-0.74052367	-0.38546363	0.19380706	-0.68765071	0.38388265	0.18120711	-0.59664157	0.26210544	0.18263405	-0.74579763	-0.13384731	-0.22738212	-0.62090200	-0.23609828	-0.43772073
4224	42.23000000	-0.88074963	-0.18782500	0.23735082	-0.65241505	0.13595076	-0.67518379	-0.47414626	-0.64405514	-0.02763333	-0.74021657	-0.38841315	0.18738644	-0.69315446	0.36631599	0.18213123	-0.59682952	0.25318269	0.18370240	-0.74815528	-0.13917134	-0.22617664	-0.61267245	-0.23694924	-0.44363827
4225	42.24000000	-0.87798382	-0.18655790	0.23445215	-0.65809206	0.13475505	-0.67983955	-0.47183700	-0.65117943	-0.04025442	-0.73479817	-0.39340114	0.17917642	-0.70791382	0.35407027	0.18053787	-0.59862148	0.24869181	0.17709874	-0.74738962	-0.14024572	-0.21791896	-0.60888772	-0.24298526	-0.45081117
4226	42.25000000	-0.87489223	-0.18581641	0.23804822	-0.65930733	0.14296178	-0.67635075	-0.47008024	-0.65305128	-0.04462535	-0.73147986	-0.40129217	0.18059427	-0.71179364	0.34838455	0.17741369	-0.60399044	0.24921109	0.17736012	-0.74818662	-0.14383990	-0.20924591	-0.60366217	-0.24264823	-0.45621142
4227	42.26000000	-0.87864239	-0.18321423	0.23834373	-0.65697976	0.14688308	-0.66679207	-0.46565466	-0.65851833	-0.04799745	-0.72969399	-0.40719205	0.17596125	-0.70763823	0.33530767	0.18176901	-0.60593003	0.24311122	0.17605263	-0.75898002	-0.14624294	-0.20220717	-0.60149424	-0.24494844	-0.46140502
4228	42.27000000	-0.87830083	-0.18267456	0.23976034	-0.66086376	0.14789404	-0.66291998	-0.45902136	-0.66599766	-0.04945662	-0.72572016	-0.41327101	0.17421771	-0.71473344	0.32930727	0.18254692	-0.60522496	0.23458264	0.18999497	-0.75581030	-0.14615771	-0.19481629	-0.59375437	-0.24829050	-0.46919512
4229	42.28000000	-0.87616103	-0.18771004	0.24011476	-0.66666833	0.15341663	-0.65961439	-0.45787376	-0.66668740	-0.05260682	-0.72439112	-0.41946267	0.17306690	-0.72133027	0.32655923	0.17700133	-0.60454764	0.22978308	0.19186673	-0.76028978	-0.15172423	-0.18719704	-0.58705603	-0.24467505	-0.47199313
4230	42.29000000	-0.87889556	-0.18532065	0.23764622	-0.66523081	0.15393655	-0.65589833	-0.44816145	-0.67018372	-0.05853649	-0.72666324	-0.41861332	0.16604531	-0.72654511	0.32292129	0.18195588	-0.60704449	0.22497864	0.17718062	-0.76281582	-0.15319512	-0.17403868	-0.58966876	-0.24426054	-0.47339724
4231	42.30000000	-0.88242486	-0.18526548	0.23361521	-0.66658006	0.15366054	-0.65386542	-0.43890479	-0.67384846	-0.06377398	-0.73077406	-0.42418005	0.16183687	-0.72460141	0.31946898	0.18791851	-0.60963790	0.22387971	0.17903155	-0.75943143	-0.15563179	-0.16700074	-0.58338318	-0.25005290	-0.47969315
4232	42.31000000	-0.87738461	-0.18815018	0.23325580	-0.66924208	0.16144653	-0.65225360	-0.43516725	-0.68087070	-0.06170534	-0.72908602	-0.42638361	0.15206284	-0.72065950	0.30932891	0.17788158	-0.60940303	0.22624189	0.17776981	-0.76522282	-0.16330321	-0.15716498	-0.57954376	-0.25104097	-0.47852602
4233	42.32000000	-0.87616308	-0.18835367	0.23225508	-0.67057912	0.16637520	-0.64764279	-0.42461270	-0.68662225	-0.06525917	-0.72592975	-0.42417815	0.14946941	-0.71804634	0.31061888	0.17709204	-0.60893900	0.22310986	0.18154572	-0.76808665	-0.16597749	-0.13982559	-0.58153353	-0.24691396	-0.47802777
4234	42.33000000	-0.87974258	-0.19200902	0.22981276	-0.66992533	0.17033803	-0.64090398	-0.41347031	-0.69422156	-0.07154323	-0.72907450	-0.42551753	0.14730904	-0.71977765	0.31517145	0.18400114	-0.61063362	0.22091766	0.18790658	-0.76982281	-0.16689695	-0.12682528	-0.58385475	-0.24372619	-0.48201190
4235	42.34000000	-0.87748149	-0.19570926	0.22837687	-0.67370795	0.17473569	-0.63923528	-0.40469169	-0.70079927	-0.06586403	-0.73106426	-0.42773623	0.13687633	-0.72190643	0.31312546	0.18822028	-0.60938479	0.21991114	0.19124823	-0.77273909	-0.16768520	-0.10766417	-0.58649711	-0.24082829	-0.48497638
4236	42.35000000	-0.87674973	-0.19550345	0.22380753	-0.67919001	0.17808507	-0.63860953	-0.39204993	-0.70396762	-0.07073289	-0.73216635	-0.42304507	0.13538816	-0.71718300	0.31770321	0.19116749	-0.60633860	0.21926366	0.19132725	-0.77126907	-0.17139362	-0.08478967	-0.59499944	-0.23531289	-0.47350032
4237	42.36000000	-0.88270071	-0.19314530	0.22487403	-0.67856440	0.18570890	-0.62914097	-0.37519222	-0.71065702	-0.07521729	-0.73257282	-0.42280775	0.12888280	-0.71554520	0.32063431	0.18736825	-0.60738342	0.21599160	0.19511776	-0.77551463	-0.17408321	-0.06443764	-0.60610700	-0.22832103	-0.45802820
4238	42.37000000	-0.88337142	-0.19753533	0.22383459	-0.67778125	0.18793545	-0.63019795	-0.36111881	-0.71783993	-0.06910257	-0.73655835	-0.42085004	0.12221153	-0.71314659	0.33207254	0.19400439	-0.60447796	0.21764108	0.19235658	-0.77730714	-0.17228256	-0.03630500	-0.61454545	-0.22475637	-0.44563763
4239	42.38000000	-0.88062724	-0.20003176	0.21362123	-0.67595508	0.19121216	-0.63437046	-0.34506727	-0.72633250	-0.06936330	-0.74611942	-0.40862307	0.11356233	-0.70521243	0.34848340	0.19991568	-0.60214474	0.22035972	0.18752456	-0.77834167	-0.17267569	-0.00805498	-0.62513571	-0.22726812	-0.42952705
4240	42.39000000	-0.87854451	-0.19758727	0.21309388	-0.67806218	0.19516415	-0.62922496	-0.32718435	-0.73474107	-0.06522021	-0.75476248	-0.39997891	0.10398777	-0.69641056	0.35462200	0.20436125	-0.59500620	0.22050180	0.19826305	-0.77900219	-0.17366633	0.02662517	-0.63363047	-0.22646090	-0.42017793
4241	42.40000000	-0.87670934	-0.19962041	0.21830401	-0.67768445	0.20101285	-0.62759795	-0.30639909	-0.74217597	-0.05986222	-0.76144143	-0.39060152	0.10152923	-0.69527044	0.36089824	0.21151883	-0.59464458	0.22530083	0.20393386	-0.77548045	-0.17684739	0.06619841	-0.63541730	-0.22101380	-0.41951461
4242	42.41000000	-0.88008827	-0.19997409	0.21529482	-0.67165600	0.20464133	-0.62677087	-0.28831317	-0.74794143	-0.05769530	-0.76590919	-0.37349225	0.09701318	-0.68693428	0.36261268	0.22312180	-0.59676022	0.22439300	0.20362239	-0.76989353	-0.18217637	0.11122994	-0.64263258	-0.21867666	-0.40859774
4243	42.42000000	-0.88018871	-0.20363612	0.20979382	-0.67313666	0.21040196	-0.62526734	-0.27374749	-0.75534707	-0.05579059	-0.77703531	-0.35984523	0.09315141	-0.68260267	0.37089978	0.22683560	-0.59418217	0.22404918	0.20749745	-0.75718683	-0.18822777	0.15959535	-0.64524713	-0.22126367	-0.39329906
4244	42.43000000	-0.87546237	-0.20715945	0.21078953	-0.67318109	0.21443146	-0.61834378	-0.25262424	-0.76390578	-0.04937147	-0.78635058	-0.34432495	0.08116231	-0.68259991	0.38163057	0.22582969	-0.59691397	0.22685104	0.21251145	-0.74600466	-0.19601569	0.20177467	-0.64795990	-0.21917478	-0.39479366
4245	42.44000000	-0.87610879	-0.20792923	0.21218519	-0.67961147	0.20985494	-0.61455093	-0.23162729	-0.77249529	-0.04204266	-0.79759361	-0.31986385	0.06816024	-0.67324094	0.38864956	0.23150866	-0.59472820	0.22767464	0.21482489	-0.73361691	-0.20150585	0.24937198	-0.65457541	-0.21923734	-0.39498992
4246	42.45000000	-0.87766957	-0.20843665	0.21167908	-0.68472879	0.20664678	-0.61571101	-0.21002749	-0.77889342	-0.02818713	-0.80968249	-0.29171690	0.05839762	-0.66694984	0.39626045	0.23189205	-0.59472824	0.22814163	0.21349512	-0.71769171	-0.20917179	0.28401328	-0.65076022	-0.22202175	-0.39188628
4247	42.46000000	-0.87584566	-0.21299116	0.21264350	-0.68172227	0.20553370	-0.61269729	-0.18460963	-0.78179254	-0.01690106	-0.81658193	-0.27584168	0.04914215	-0.66289756	0.39779778	0.23679740	-0.58974297	0.22520596	0.21015389	-0.69978650	-0.22233587	0.31913313	-0.65437120	-0.22321292	-0.39174370
4248	42.47000000	-0.87453216	-0.21868031	0.21014566	-0.68390153	0.20635903	-0.60955634	-0.16512149	-0.78241504	-0.00778589	-0.82438065	-0.25353787	0.03592751	-0.65854242	0.40546142	0.24203084	-0.59061037	0.22506640	0.20492321	-0.68732480	-0.22732147	0.35076956	-0.65582875	-0.22201081	-0.38824668
